<svg xmlns="http://www.w3.org/2000/svg"  viewBox="0 0 16 16" width="16px" height="16px"><path fill="#c74343" d="M8,15.5c-4.135,0-7.5-3.365-7.5-7.5S3.865,0.5,8,0.5s7.5,3.365,7.5,7.5S12.135,15.5,8,15.5z"/><path fill="#ab3434" d="M8,1c3.86,0,7,3.14,7,7s-3.14,7-7,7s-7-3.14-7-7S4.14,1,8,1 M8,0C3.579,0,0,3.579,0,8s3.579,8,8,8 s8-3.579,8-8S12.421,0,8,0L8,0z"/><path fill="#fefdfd" d="M12.88,3L9.17,5.97C8.87,5.8,8.54,5.67,8.2,5.59L11,2L12.88,3z"/><path fill="#fefcfc" d="M9.5 2L7.56 5.51C7.48 5.49 7.39 5.49 7.31 5.49c-.19 0-.37.01-.55.05L7.75 2H9.5zM6.62 2.12L6.06 5.7C5.8 5.79 5.55 5.91 5.32 6.06L5 2.85 6.62 2.12zM4.8 6.44c-.22.19-.41.4-.58.63L3 4.75 4 3.5 4.8 6.44zM3.86 7.69V7.7c-.1.19-.17.39-.23.6L2 6.98l.45-1.11L3.86 7.69z"/><path fill="#fefbfb" d="M3.5,9.29c0,0.14,0.01,0.27,0.02,0.41L2,9V8.12l1.52,0.87C3.5,9.09,3.5,9.19,3.5,9.29z"/><path fill="#fefcfc" d="M3.75,10.62H2.6L2.24,10l1.35,0.1C3.63,10.28,3.68,10.45,3.75,10.62z"/><path fill="#fdfafa" d="M4.27,11.57L3.5,11.88L3,11.34l1.02-0.15C4.09,11.32,4.18,11.45,4.27,11.57z"/><path fill="#fefdfd" d="M4.787,12.125h3.859L6.894,9.071l3.585-1.891l-0.033-0.05c-0.71-1.027-1.879-1.64-3.136-1.64 C5.209,5.49,3.5,7.192,3.5,9.285C3.5,10.378,3.967,11.403,4.787,12.125z"/><path fill="#ffab91" d="M8.365,11.625H4.983C4.355,11.007,4,10.171,4,9.285C4,7.468,5.485,5.99,7.31,5.99 c0.929,0,1.802,0.385,2.421,1.046l0.265,0.399l0.926-0.494l-0.02-0.031C10.13,5.753,8.81,4.99,7.31,4.99C4.93,4.99,3,6.913,3,9.285 c0,1.35,0.627,2.552,1.605,3.34h4.31L8.365,11.625z"/><path fill="#ffab91" d="M11.625,6L6,9l0.375,1L12,9L11.625,6z"/><path fill="#ff6868" d="M8.119,11.178C7.967,11.141,7.357,11,6.79,11c-0.74,0-1.224,0.134-1.547,0.304 c-0.181,0.095-0.315,0.255-0.401,0.441C4.59,12.292,4,13.5,4,13.5S4.95,13,5.9,13c1.425,0,2.375,0.5,2.375,0.5l0.523-1.088 L8.119,11.178z"/><path fill="#ffab91" d="M6.625,9.5L9.1,14c0,0,1.146-0.124,1.9-1.244c0,0-0.754-1.492-1.382-1.865 c-0.341-0.202-1.044-0.558-1.256-0.791C8.023,9.726,7.546,9.5,7.034,9.5H6.625z"/></svg>